<svg width="248" height="275" viewBox="0 0 248 275" fill="none" xmlns="http://www.w3.org/2000/svg">
<path d="M0 60.3075C0 53.6525 4.74375 48.2487 10.6012 48.2487H47.245C54.5187 48.0287 60.94 42.7625 63.415 34.98L63.8275 33.605L65.4088 28.2288C66.3712 24.9287 67.21 22.0412 68.3925 19.47C73.04 9.30875 81.6475 2.255 91.5888 0.45375C94.1188 -1.02445e-07 96.7862 0 99.8387 0H147.661C150.728 0 153.395 -1.02445e-07 155.911 0.45375C165.852 2.255 174.474 9.30875 179.107 19.47C180.29 22.0412 181.129 24.915 182.105 28.2288L183.673 33.605L184.085 34.98C186.56 42.7625 194.26 48.0425 201.548 48.2487H236.885C242.756 48.2487 247.5 53.6525 247.5 60.3075C247.5 66.9625 242.756 72.3662 236.899 72.3662H10.5875C4.74375 72.3662 0 66.9625 0 60.3075Z" fill="white"/>
<path fill-rule="evenodd" clip-rule="evenodd" d="M88.3437 130.378C94.0224 129.773 99.0687 134.131 99.6324 140.099L106.507 212.465C107.071 218.419 102.932 223.74 97.2812 224.345C91.6162 224.936 86.5562 220.591 85.9924 214.624L79.1174 142.258C78.5537 136.29 82.6924 130.969 88.3437 130.378ZM159.156 130.378C164.821 130.969 168.96 136.29 168.382 142.258L161.507 214.624C160.957 220.591 155.897 224.936 150.232 224.345C144.554 223.74 140.429 218.433 140.992 212.465L147.867 140.085C148.431 134.131 153.491 129.773 159.142 130.364L159.156 130.378Z" fill="white"/>
<path opacity="0.5" d="M118.195 275H129.305C167.571 275 186.698 275 199.155 262.817C211.585 250.635 212.85 230.656 215.394 190.699L219.065 133.114C220.44 111.43 221.128 100.581 214.899 93.72C208.656 86.845 198.124 86.845 177.045 86.845H70.455C49.3763 86.845 38.83 86.845 32.6013 93.72C26.3588 100.595 27.0463 111.43 28.435 133.114L32.1063 190.699C34.65 230.656 35.915 250.649 48.3588 262.817C60.8025 275 79.9288 275 118.195 275Z" fill="white"/>
</svg>
