<svg width="500" height="500" viewBox="0 0 500 500" fill="none" xmlns="http://www.w3.org/2000/svg">
<rect width="500" height="500" rx="130" fill="#00AA13"/>
<path d="M126.25 172.808C126.25 166.153 130.994 160.749 136.851 160.749H173.495C180.769 160.529 187.19 155.263 189.665 147.48L190.078 146.105L191.659 140.729C192.621 137.429 193.46 134.541 194.643 131.97C199.29 121.809 207.898 114.755 217.839 112.954C220.369 112.5 223.036 112.5 226.089 112.5H273.911C276.978 112.5 279.645 112.5 282.161 112.954C292.102 114.755 300.724 121.809 305.357 131.97C306.54 134.541 307.379 137.415 308.355 140.729L309.923 146.105L310.335 147.48C312.81 155.263 320.51 160.542 327.798 160.749H363.135C369.006 160.749 373.75 166.153 373.75 172.808C373.75 179.463 369.006 184.866 363.149 184.866H136.837C130.994 184.866 126.25 179.463 126.25 172.808Z" fill="white"/>
<path fill-rule="evenodd" clip-rule="evenodd" d="M214.594 242.878C220.273 242.273 225.319 246.631 225.883 252.599L232.758 324.965C233.321 330.919 229.182 336.24 223.531 336.845C217.866 337.436 212.806 333.091 212.242 327.124L205.367 254.758C204.804 248.79 208.943 243.469 214.594 242.878ZM285.406 242.878C291.071 243.469 295.21 248.79 294.633 254.758L287.758 327.124C287.208 333.091 282.147 337.436 276.482 336.845C270.804 336.24 266.679 330.933 267.242 324.965L274.118 252.585C274.681 246.631 279.741 242.273 285.393 242.864L285.406 242.878Z" fill="white"/>
<path opacity="0.5" d="M244.445 387.5H255.555C293.821 387.5 312.948 387.5 325.405 375.317C337.835 363.135 339.1 343.156 341.644 303.199L345.315 245.614C346.69 223.93 347.378 213.081 341.149 206.22C334.906 199.345 324.374 199.345 303.295 199.345H196.705C175.626 199.345 165.08 199.345 158.851 206.22C152.609 213.095 153.296 223.93 154.685 245.614L158.356 303.199C160.9 343.156 162.165 363.149 174.609 375.317C187.053 387.5 206.179 387.5 244.445 387.5Z" fill="white"/>
</svg>
